HIERARCHY
ROOT Hips
{
	OFFSET 0.000000 0.000000 0.000000
	CHANNELS 6 Xposition Yposition Zposition Xrotation Yrotation Zrotation
	JOINT LeftUpLeg_virtual
	{
		OFFSET 0.000000 0.000000 0.000000
		CHANNELS 3 Xrotation Yrotation Zrotation
		JOINT LeftUpLeg
		{
			OFFSET 15.427100 -6.655098 0.678600
			CHANNELS 3 Xrotation Yrotation Zrotation
			JOINT LeftLeg
			{
				OFFSET 4.081073 -39.591068 13.024000
				CHANNELS 3 Xrotation Yrotation Zrotation
				JOINT LeftFoot
				{
					OFFSET -4.081074 -37.707932 -15.979700
					CHANNELS 3 Xrotation Yrotation Zrotation
					JOINT LeftToeBase
					{
						OFFSET 5.346399 -15.068900 20.645000
						CHANNELS 3 Xrotation Yrotation Zrotation
						JOINT LeftToe_End
						{
							OFFSET 2.754700 0.931300 11.300900
							CHANNELS 3 Xrotation Yrotation Zrotation
							End Site
							{
								OFFSET 0 0 0
							}
						}
					}
				}
			}
		}
	}
	JOINT RightUpLeg_virtual
	{
		OFFSET 0.000000 0.000000 0.000000
		CHANNELS 3 Xrotation Yrotation Zrotation
		JOINT RightUpLeg
		{
			OFFSET -15.569500 -6.655098 0.678600
			CHANNELS 3 Xrotation Yrotation Zrotation
			JOINT RightLeg
			{
				OFFSET -4.081825 -39.591045 13.023800
				CHANNELS 3 Xrotation Yrotation Zrotation
				JOINT RightFoot
				{
					OFFSET 4.081824 -37.707954 -15.979600
					CHANNELS 3 Xrotation Yrotation Zrotation
					JOINT RightToeBase
					{
						OFFSET -5.346400 -15.068900 20.645000
						CHANNELS 3 Xrotation Yrotation Zrotation
						JOINT RightToe_End
						{
							OFFSET -2.754700 0.931300 11.300900
							CHANNELS 3 Xrotation Yrotation Zrotation
							End Site
							{
								OFFSET 0 0 0
							}
						}
					}
				}
			}
		}
	}
	JOINT Spine_virtual
	{
		OFFSET 0.000000 0.000000 0.000000
		CHANNELS 3 Xrotation Yrotation Zrotation
		JOINT Spine
		{
			OFFSET -0.279200 12.230698 -2.892100
			CHANNELS 3 Xrotation Yrotation Zrotation
			JOINT Spine1
			{
				OFFSET -0.232667 10.192268 -1.242267
				CHANNELS 3 Xrotation Yrotation Zrotation
				JOINT Spine1_split
				{
					OFFSET -0.232667 10.192268 -1.242267
					CHANNELS 3 Xrotation Yrotation Zrotation
					JOINT Spine2
					{
						OFFSET -0.232667 10.192268 -1.242267
						CHANNELS 3 Xrotation Yrotation Zrotation
						JOINT Neck_virtual
						{
							OFFSET 0.000000 0.000000 0.000000
							CHANNELS 3 Xrotation Yrotation Zrotation
							JOINT Neck
							{
								OFFSET -0.418800 17.814194 8.416900
								CHANNELS 3 Xrotation Yrotation Zrotation
								JOINT Head
								{
									OFFSET 0.000000 7.031097 3.806800
									CHANNELS 3 Xrotation Yrotation Zrotation
									JOINT HeadTop_End
									{
										OFFSET 0.000000 24.646606 12.978600
										CHANNELS 3 Xrotation Yrotation Zrotation
										End Site
										{
											OFFSET 0 0 0
										}
									}
								}
							}
						}
						JOINT LeftShoulder_virtual
						{
							OFFSET 0.000000 0.000000 0.000000
							CHANNELS 3 Xrotation Yrotation Zrotation
							JOINT LeftShoulder
							{
								OFFSET 8.476499 7.247704 -3.868750
								CHANNELS 3 Xrotation Yrotation Zrotation
								JOINT LeftShoulder_split
								{
									OFFSET 8.476499 7.247704 -3.868750
									CHANNELS 3 Xrotation Yrotation Zrotation
									JOINT LeftArm
									{
										OFFSET 9.308998 -2.777710 0.208600
										CHANNELS 3 Xrotation Yrotation Zrotation
										JOINT LeftForeArm
										{
											OFFSET 29.972298 0.000000 0.000000
											CHANNELS 3 Xrotation Yrotation Zrotation
											JOINT LeftHand
											{
												OFFSET 26.026505 0.000000 0.000000
												CHANNELS 3 Xrotation Yrotation Zrotation
												End Site
												{
													OFFSET 0 0 0
												}
											}
										}
									}
								}
							}
						}
						JOINT RightShoulder_virtual
						{
							OFFSET 0.000000 0.000000 0.000000
							CHANNELS 3 Xrotation Yrotation Zrotation
							JOINT RightShoulder
							{
								OFFSET -7.570500 7.247704 -3.868750
								CHANNELS 3 Xrotation Yrotation Zrotation
								JOINT RightShoulder_split
								{
									OFFSET -7.570500 7.247704 -3.868750
									CHANNELS 3 Xrotation Yrotation Zrotation
									JOINT RightArm
									{
										OFFSET -9.308998 -2.777710 0.208500
										CHANNELS 3 Xrotation Yrotation Zrotation
										JOINT RightForeArm
										{
											OFFSET -29.972300 0.000000 0.000000
											CHANNELS 3 Xrotation Yrotation Zrotation
											JOINT RightHand
											{
												OFFSET -26.026505 0.000000 0.000000
												CHANNELS 3 Xrotation Yrotation Zrotation
												End Site
												{
													OFFSET 0 0 0
												}
											}
										}
									}
								}
							}
						}
					}
				}
			}
		}
	}
}
MOTION
Frames: 11
Frame Time: 0.03333333
-0.504885 83.072044 45.230247 0.000000 0.000000 0.000000 9.591285 -5.202209 0.323106 -30.656765 5.946938 19.665750 38.031094 7.299453 0.382694 -15.063567 -2.846326 -15.115758 1.219792 -0.575726 1.218082 0.000000 0.000000 0.000000 9.791798 -4.849389 0.586847 -32.716654 -1.845073 -7.207329 38.483133 2.498374 -4.470028 -15.089283 -10.749731 8.706472 3.447282 0.520092 0.025675 0.000000 0.000000 0.000000 9.723941 -4.939764 0.154746 6.447218 0.003586 -0.650801 1.820865 -0.346424 0.411887 1.070187 1.531415 -0.053499 0.000000 0.000000 0.000000 1.666206 -0.809918 0.357100 12.543412 -0.410483 0.691237 -30.045063 0.811014 -4.967966 0.000000 0.000000 0.000000 1.600336 -0.705163 0.668714 5.920083 -9.325666 19.320059 -1.305171 -4.242598 -0.067587 -33.176414 -15.155860 -13.805853 178.399173 -58.107684 179.818882 0.000000 0.000000 0.000000 0.881379 -0.750435 0.569344 -0.843169 -8.235769 -16.466341 0.509697 -0.392573 1.986080 -38.521369 35.541361 31.304116 179.116506 52.041728 -179.666364 0.000000 0.000000 0.000000 
-0.617820 85.310524 46.223610 0.000000 0.000000 0.000000 9.806329 -5.027395 0.549636 -27.535242 7.136503 18.834487 32.721739 7.573269 0.421074 -13.817701 -2.886614 -14.598011 1.669590 -0.434831 0.789775 0.000000 0.000000 0.000000 10.118415 -4.456881 0.696742 -29.304401 -2.254515 -7.112869 33.079381 2.271484 -4.431760 -12.883524 -10.728696 8.805157 2.705891 0.451867 0.103494 0.000000 0.000000 0.000000 10.061974 -4.698506 0.327518 6.194119 -0.119233 -0.625156 0.963695 -0.372196 0.269761 1.174454 1.466860 0.064921 0.000000 0.000000 0.000000 0.665285 -0.832689 0.230897 12.299632 -0.374190 0.884521 -29.033918 0.724309 -4.746680 0.000000 0.000000 0.000000 0.550612 -0.752875 0.488782 5.938893 -9.367021 19.110475 -1.535346 -3.998693 -0.077845 -32.606411 -15.626732 -14.144936 178.643898 -58.297454 -179.981755 0.000000 0.000000 0.000000 -0.177283 -0.755748 0.469695 -0.950541 -8.175489 -16.494420 0.717614 -0.758290 2.075810 -37.021193 36.330719 30.603305 179.023807 52.217923 -179.332135 0.000000 0.000000 0.000000 
-0.710955 87.305733 47.071339 0.000000 0.000000 0.000000 10.015053 -4.826515 0.752912 -24.624408 8.197753 17.973595 27.703816 7.761994 0.498097 -12.481601 -3.102377 -14.266806 2.011623 -0.271673 0.473916 0.000000 0.000000 0.000000 10.403498 -4.057683 0.790663 -26.184316 -2.488812 -7.088151 28.232059 1.994298 -4.344781 -10.792292 -10.694633 8.869916 2.219411 0.384871 0.169396 0.000000 0.000000 0.000000 10.353096 -4.347531 0.489761 6.001419 -0.232464 -0.631526 0.195285 -0.427171 0.183678 1.217955 1.382219 0.163794 0.000000 0.000000 0.000000 -0.178906 -0.879256 0.170591 11.867973 -0.338189 0.966047 -28.050651 0.695232 -4.562423 0.000000 0.000000 0.000000 -0.371497 -0.801977 0.361994 5.850108 -9.058768 18.901256 -1.659145 -3.909971 -0.049375 -31.703754 -16.903287 -14.398126 178.885154 -58.700415 -179.800563 0.000000 0.000000 0.000000 -1.092855 -0.785099 0.402252 -1.097255 -8.200255 -16.400978 0.781848 -1.177438 2.106892 -35.472389 37.195940 30.113338 178.920220 52.474977 -178.957513 0.000000 0.000000 0.000000 
-0.762666 88.848145 47.672455 0.000000 0.000000 0.000000 10.142846 -4.637141 0.896819 -22.243884 9.042648 17.227218 23.480092 7.854692 0.563956 -11.069988 -3.478784 -14.175851 2.205290 -0.101763 0.291312 0.000000 0.000000 0.000000 10.623668 -3.717087 0.856592 -23.646912 -2.578157 -7.139287 24.236119 1.707507 -4.237790 -9.087369 -10.610566 8.858268 2.232624 0.328241 0.204652 0.000000 0.000000 0.000000 10.568802 -4.000643 0.611630 5.881401 -0.311192 -0.645800 -0.414645 -0.495388 0.156397 1.220342 1.332821 0.169336 0.000000 0.000000 0.000000 -0.802699 -0.945715 0.180637 11.380650 -0.309607 0.973814 -27.083464 0.743418 -4.450904 0.000000 0.000000 0.000000 -1.111280 -0.849527 0.307905 5.677794 -8.388328 18.719009 -1.742608 -3.861494 0.011859 -30.688183 -18.785658 -14.599758 179.144346 -58.848227 -179.570277 0.000000 0.000000 0.000000 -1.777637 -0.826526 0.373992 -1.268483 -8.316655 -16.204243 0.658760 -1.374479 2.114447 -34.128181 37.856856 29.923284 178.841933 52.678845 -178.646070 0.000000 0.000000 0.000000 
-0.789786 89.874245 48.044827 0.000000 0.000000 0.000000 10.217571 -4.535684 0.978468 -20.562585 9.608239 16.689830 20.365129 7.881677 0.580775 -9.624299 -3.976072 -14.271803 2.397693 0.060045 0.209653 0.000000 0.000000 0.000000 10.786357 -3.505486 0.881907 -21.841313 -2.536007 -7.249984 21.335785 1.447285 -4.108098 -7.857504 -10.501745 8.751463 2.560700 0.284405 0.213604 0.000000 0.000000 0.000000 10.696322 -3.698357 0.689770 5.831208 -0.341583 -0.641967 -0.851661 -0.566140 0.166628 1.219650 1.334715 0.101599 0.000000 0.000000 0.000000 -1.205963 -1.017564 0.241272 10.978784 -0.260200 0.948480 -26.103269 0.860776 -4.426870 0.000000 0.000000 0.000000 -1.662992 -0.881667 0.309476 5.439923 -7.377041 18.471465 -1.654457 -4.028548 0.097137 -29.566072 -20.969787 -14.880243 179.394208 -58.394088 -179.329007 0.000000 0.000000 0.000000 -2.203246 -0.871806 0.361064 -1.433567 -8.495830 -15.964090 0.295472 -1.315500 2.201277 -32.942911 38.037248 29.995288 178.839747 52.690429 -178.492664 0.000000 0.000000 0.000000 
-0.812482 90.431892 48.172440 0.000000 0.000000 0.000000 10.245135 -4.533962 1.013212 -19.622754 9.917744 16.387019 18.415935 7.934324 0.520916 -8.319828 -4.486970 -14.360667 2.735028 0.206328 0.150166 0.000000 0.000000 0.000000 10.898013 -3.355886 0.888599 -20.735344 -2.438896 -7.399555 19.488131 1.200954 -3.965686 -7.053492 -10.399747 8.567680 2.896232 0.244572 0.198949 0.000000 0.000000 0.000000 10.728734 -3.436717 0.725196 5.835227 -0.321866 -0.608710 -1.138035 -0.629186 0.185269 1.155619 1.280454 -0.002236 0.000000 0.000000 0.000000 -1.454088 -1.086019 0.308807 10.773484 -0.188907 0.912374 -25.042185 0.996466 -4.504487 0.000000 0.000000 0.000000 -2.055852 -0.899652 0.333279 5.183098 -6.176780 18.035205 -1.357161 -4.262969 0.205559 -28.186123 -23.159903 -15.364043 179.562736 -57.427896 -179.151955 0.000000 0.000000 0.000000 -2.424070 -0.915212 0.343233 -1.562688 -8.683337 -15.721653 -0.242754 -1.144721 2.242767 -31.703453 37.547681 30.280018 178.945315 52.476470 -178.558972 0.000000 0.000000 0.000000 
-0.859206 90.642776 48.043293 0.000000 0.000000 0.000000 10.232235 -4.640892 1.027282 -19.278740 9.958358 16.254474 17.407451 8.052344 0.414950 -7.291115 -4.912945 -14.323155 3.128690 0.337440 0.087891 0.000000 0.000000 0.000000 10.930552 -3.284133 0.882901 -20.266534 -2.337542 -7.552167 18.508290 0.949949 -3.825934 -6.563558 -10.358413 8.366981 3.039332 0.191428 0.183665 0.000000 0.000000 0.000000 10.699857 -3.269413 0.732037 5.867056 -0.254086 -0.530501 -1.330493 -0.672565 0.195235 1.059612 1.303028 -0.054406 0.000000 0.000000 0.000000 -1.650302 -1.145684 0.357826 10.796245 -0.095768 0.880957 -23.866112 1.073855 -4.666184 0.000000 0.000000 0.000000 -2.338970 -0.923684 0.344331 4.971691 -5.037025 17.269734 -0.914064 -4.491057 0.447310 -26.436322 -25.062814 -16.223146 179.569416 -56.486689 -179.167241 0.000000 0.000000 0.000000 -2.511625 -0.942606 0.311955 -1.637435 -8.782797 -15.536332 -0.662648 -0.914428 2.240072 -30.181940 36.442580 30.833523 179.126820 52.114316 -178.815527 0.000000 0.000000 0.000000 
-0.915916 90.655693 47.711048 0.000000 0.000000 0.000000 10.203034 -4.723102 1.038869 -19.342710 9.778249 16.210431 17.078728 8.215967 0.292610 -6.555981 -5.227545 -14.182349 3.425771 0.441053 0.040421 0.000000 0.000000 0.000000 10.859605 -3.164515 0.890333 -20.252684 -2.251882 -7.722591 18.199384 0.681321 -3.679346 -6.304998 -10.380722 8.132261 2.993627 0.129748 0.202034 0.000000 0.000000 0.000000 10.622893 -3.135065 0.739286 5.905276 -0.163818 -0.411286 -1.494508 -0.699491 0.187470 0.944829 1.291630 -0.061799 0.000000 0.000000 0.000000 -1.865333 -1.191220 0.373556 11.013968 0.000782 0.830426 -22.589259 1.015132 -4.878486 0.000000 0.000000 0.000000 -2.553144 -0.948767 0.315394 4.859254 -4.186689 16.081148 -0.507048 -4.728456 0.765692 -23.986304 -26.623606 -17.463197 179.403197 -56.234850 -179.400014 0.000000 0.000000 0.000000 -2.567531 -0.961184 0.268690 -1.633235 -8.672939 -15.461484 -0.966457 -0.786366 2.110979 -28.055733 34.968639 31.715987 179.305580 51.890648 -179.161886 0.000000 0.000000 0.000000 
-0.981167 90.597229 47.265335 0.000000 0.000000 0.000000 10.146685 -4.630601 1.052594 -19.629468 9.464005 16.197824 17.080759 8.371652 0.163199 -5.995850 -5.453907 -14.060988 3.552545 0.512068 0.005807 0.000000 0.000000 0.000000 10.710458 -3.018394 0.923668 -20.516713 -2.202161 -7.933368 18.275343 0.411436 -3.534093 -6.156601 -10.436417 7.898374 2.998226 0.071383 0.259436 0.000000 0.000000 0.000000 10.559036 -3.002459 0.753738 5.948729 -0.071021 -0.266299 -1.658937 -0.704994 0.177047 0.845559 1.176409 -0.029661 0.000000 0.000000 0.000000 -2.135242 -1.221129 0.374384 11.332746 0.066607 0.736228 -21.230417 0.770316 -5.108193 0.000000 0.000000 0.000000 -2.733219 -0.978290 0.255006 4.877477 -3.828634 14.510479 -0.300786 -4.891912 1.070213 -20.935226 -27.866496 -19.097246 179.092601 -57.026639 -179.803856 0.000000 0.000000 0.000000 -2.659266 -0.955496 0.234817 -1.552377 -8.255762 -15.529519 -1.001800 -0.651021 1.897183 -25.356227 33.528142 33.063269 179.394304 52.091643 -179.492891 0.000000 0.000000 0.000000 
-1.034928 90.529251 46.762939 0.000000 0.000000 0.000000 10.059374 -4.356910 1.065507 -20.018282 9.099878 16.231454 17.201475 8.460677 0.001247 -5.459436 -5.664873 -14.068984 3.513851 0.548963 -0.007005 0.000000 0.000000 0.000000 10.505867 -2.809113 0.977086 -20.892948 -2.177544 -8.197563 18.467327 0.160689 -3.392980 -6.013315 -10.504072 7.691683 3.193570 0.033248 0.344733 0.000000 0.000000 0.000000 10.469688 -2.868367 0.779641 5.983597 0.001319 -0.115049 -1.841313 -0.696972 0.185435 0.861147 1.074984 0.046329 0.000000 0.000000 0.000000 -2.436219 -1.228101 0.388641 11.645749 0.059205 0.587731 -19.853260 0.328212 -5.320864 0.000000 0.000000 0.000000 -2.901016 -0.997441 0.193112 5.005100 -4.024517 12.704628 -0.327339 -5.110009 1.313911 -17.526117 -28.850497 -21.068572 178.697761 -58.809507 179.695597 0.000000 0.000000 0.000000 -2.802281 -0.924849 0.229913 -1.384185 -7.490163 -15.729864 -0.808306 -0.376186 1.602445 -22.189688 32.500485 35.005703 179.337941 52.950628 -179.717317 0.000000 0.000000 0.000000 
-1.070406 90.486603 46.260708 0.000000 0.000000 0.000000 9.927785 -3.961159 1.085999 -20.405803 8.764331 16.313519 17.338807 8.491885 -0.203288 -4.888453 -5.859649 -14.169521 3.440687 0.561642 -0.032264 0.000000 0.000000 0.000000 10.310985 -2.556475 1.048195 -21.246820 -2.208765 -8.470655 18.570045 -0.042716 -3.277573 -5.803794 -10.563447 7.607503 3.468705 0.027709 0.398260 0.000000 0.000000 0.000000 10.343088 -2.761830 0.814443 5.996783 0.043352 0.021883 -2.035650 -0.675855 0.230857 0.900172 0.933196 0.060503 0.000000 0.000000 0.000000 -2.716183 -1.207991 0.443135 11.884312 -0.031311 0.376641 -18.445278 -0.255686 -5.511603 0.000000 0.000000 0.000000 -3.066257 -0.980179 0.173560 5.199557 -4.727249 10.874668 -0.467214 -5.217120 1.450490 -14.153970 -29.618890 -23.335471 178.317251 -61.187013 179.243739 0.000000 0.000000 0.000000 -2.991514 -0.872731 0.268509 -1.128248 -6.417233 -15.986828 -0.482485 -0.006964 1.402586 -18.756009 31.999013 37.480557 179.148267 54.601898 -179.820234 0.000000 0.000000 0.000000 
